<?xml version="1.0" encoding="utf-8"?>
<!-- Generator: Adobe Illustrator 21.0.0, SVG Export Plug-In . SVG Version: 6.00 Build 0)  -->
<svg version="1.1" id="Layer_1" xmlns="http://www.w3.org/2000/svg" xmlns:xlink="http://www.w3.org/1999/xlink" x="0px" y="0px"
	 viewBox="0 0 473.9 473.9" style="enable-background:new 0 0 473.9 473.9;" xml:space="preserve">
<style type="text/css">
	.st0{fill:#4081C5;}
	.st1{fill:#FFFFFF;}
</style>
<circle class="st0" cx="237" cy="237" r="237"/>
<path class="st0" d="M404.5,69.4c92.5,92.5,92.6,242.6,0,335.1c-92.5,92.5-242.6,92.5-335.1,0L404.5,69.4z"/>
<g>
	<path class="st1" d="M358.7,205c-23,0-46.1,0-69.1,0c27,44.4-3.9,102.9-59.6,97.4c-34-3.3-65.2-39.9-51.4-81.5
		c0.9-2.6,2.7-5.5,4.1-8.3c1.3-2.6,3.6-5.7,3-7.7c-22.6,0-68.5,0-68.5,0v114c2.3,22.3,19.8,39.8,42.5,41.9h78.5h78.5
		c22.7-2.3,39.7-21.3,41.9-41.3C358.7,319.5,358.7,224.7,358.7,205z"/>
	<path class="st1" d="M231.7,193.7c-9.3,1.1-14.3,3.1-18.9,5.9c-10.6,6.4-20.6,18.3-22.4,34.2c-3.6,32.2,20,54.3,47.2,54.3
		c21.7,0,48.1-15.5,47.8-47.8C285.2,211,261.7,190.1,231.7,193.7z M272.5,249.8c-4,16.3-22,28.6-40.7,26
		c-17.9-2.5-37.1-24.7-26.6-49.6c3.9-9.1,12.6-19.4,30.7-20.7C258.1,204,278.8,223.9,272.5,249.8z"/>
	<path class="st1" d="M345.1,131.8c-6.5-6.5-17.2-12.5-28.9-13.6h-78.3h-0.2h-56.1v61.4h-10v-61.4h-6.2v61.4h-10v-60.8
		c-2.2,0.4-4.4,1-6.5,1.7v59.1h-10v-54.3c-3.2,2-6,4.2-8.3,6.5c-13.4,13.4-14.4,36.3-13.6,65.5h75c3-0.7,6.7-4.5,9.4-6.5
		c10.1-7.4,23.1-11.5,36.3-11.6h0.4c13.2,0.1,26.2,4.2,36.3,11.6c2.8,2,6.4,5.8,9.4,6.5h75C359,167.8,358.5,145.1,345.1,131.8z
		 M334.8,171.6c0,3.4-2.8,6.2-6.2,6.2h-25.9c-3.4,0-6.2-2.8-6.2-6.2v-25.9c0-3.4,2.8-6.2,6.2-6.2h25.9c3.4,0,6.2,2.8,6.2,6.2V171.6z
		"/>
</g>
</svg>
